<svg xmlns="http://www.w3.org/2000/svg" xmlns:link="http://www.w3.org/1999/xlink" style="display:none;">
  <symbol viewBox="0 0 16 16" fill="none" xmlns="http://www.w3.org/2000/svg" id="icon-like">
    <path fill-rule="evenodd" clip-rule="evenodd" d="M12.6509 9.11833L8.50502 13.7765C8.37852 13.9187 8.19731 14 8.00703 14C7.81675 14 7.63554 13.9187 7.50904 13.7765L3.36362 9.11887C1.56242 7.22731 1.63591 4.8502 2.84654 3.4053C3.4489 2.68638 4.32726 2.214 5.34296 2.18802C6.21115 2.16582 7.12434 2.47019 8.00628 3.13482C8.88523 2.47031 9.79626 2.1658 10.6631 2.18802C11.6775 2.21402 12.5548 2.68678 13.1568 3.4053C14.3665 4.84903 14.4455 7.22576 12.6509 9.11833ZM10.629 3.52092C10.0266 3.50548 9.27183 3.75028 8.45601 4.49355C8.20194 4.72502 7.81352 4.7254 7.559 4.49441C6.73956 3.75074 5.98173 3.50545 5.37705 3.52092C4.7716 3.5364 4.24367 3.8139 3.86856 4.26161C3.12614 5.14769 2.95832 6.76559 4.3358 8.20631C4.34128 8.21205 4.34666 8.21787 4.35194 8.2238L8.00703 12.3306L11.6621 8.2238C11.6671 8.21825 11.6721 8.21278 11.6772 8.20739C13.0477 6.7676 12.8783 5.149 12.1348 4.26161C11.7594 3.81351 11.2322 3.53638 10.629 3.52092Z" fill="currentColor"/>
  </symbol>
  <symbol viewBox="0 0 16 16" fill="none" xmlns="http://www.w3.org/2000/svg" id="icon-plane">
    <path fill-rule="evenodd" clip-rule="evenodd" d="M14.6667 7.99998C14.6667 8.27492 14.498 8.52167 14.2417 8.62132L2.24171 13.288C1.99149 13.3853 1.70732 13.323 1.52073 13.13C1.33415 12.9369 1.28156 12.6508 1.38732 12.404L3.27477 7.99998L1.38732 3.59593C1.28156 3.34916 1.33415 3.06303 1.52073 2.86999C1.70732 2.67695 1.99149 2.61467 2.24171 2.71198L14.2417 7.37865C14.498 7.4783 14.6667 7.72504 14.6667 7.99998ZM4.43968 8.66665L3.23833 11.4698L12.1607 7.99998L3.23833 4.53016L4.43968 7.33331H7.33341C7.7016 7.33331 8.00008 7.63179 8.00008 7.99998C8.00008 8.36817 7.7016 8.66665 7.33341 8.66665H4.43968Z" fill="currentColor"/>
  </symbol>
  <symbol viewBox="0 0 14 14" fill="none" xmlns="http://www.w3.org/2000/svg" id="icon-local">
    <path fill-rule="evenodd" clip-rule="evenodd" d="M6.94521 1.16297C7.79903 1.15224 8.63942 1.37598 9.37487 1.80982C10.1103 2.24366 10.7127 2.87097 11.1163 3.62344C11.5199 4.37591 11.7093 5.2247 11.6639 6.07737C11.6201 6.90068 11.3589 7.69715 10.9078 8.386C10.8872 8.42823 10.8613 8.46837 10.8303 8.50538L10.7674 8.58037C10.6635 8.72249 10.5518 8.85871 10.4328 8.98838L7.45085 12.6202C7.34014 12.755 7.17488 12.8332 7.00042 12.8334C6.82595 12.8335 6.66059 12.7555 6.54969 12.6208L3.48938 8.90413C3.48901 8.90369 3.48864 8.90324 3.48827 8.90279C3.42768 8.83006 3.36766 8.75566 3.30831 8.68037L3.2302 8.58563C3.20008 8.54911 3.17495 8.50963 3.15493 8.46816C2.69286 7.79423 2.41548 7.0102 2.35146 6.19434C2.28466 5.34308 2.4527 4.48981 2.83728 3.72743C3.22186 2.96506 3.80824 2.32282 4.53257 1.87065C5.2569 1.41847 6.0914 1.17369 6.94521 1.16297ZM4.19227 7.91854L4.21258 7.94317L4.22082 7.9534C4.27643 8.02403 4.33134 8.09209 4.38564 8.15725L4.38784 8.15989L4.38783 8.1599L6.99937 11.3315L9.54167 8.23519C9.54895 8.22633 9.55648 8.21769 9.56427 8.20927C9.66103 8.10466 9.75142 7.99434 9.83497 7.87891C9.84311 7.86767 9.85165 7.85672 9.86056 7.84609L9.88518 7.81674C9.88839 7.81171 9.89168 7.80672 9.89506 7.80177C10.256 7.27275 10.4648 6.65485 10.4989 6.01534C10.5329 5.37584 10.3909 4.73925 10.0882 4.1749C9.78545 3.61054 9.3337 3.14006 8.78211 2.81468C8.23052 2.4893 7.60023 2.3215 6.95987 2.32954C6.31951 2.33758 5.69363 2.52117 5.15038 2.8603C4.60714 3.19943 4.16735 3.68111 3.87892 4.25289C3.59048 4.82467 3.46445 5.46463 3.51455 6.10307C3.56465 6.74152 3.78896 7.35399 4.16306 7.87377C4.17353 7.88833 4.18327 7.90327 4.19227 7.91854ZM7.00001 4.66669C6.35568 4.66669 5.83334 5.18903 5.83334 5.83336C5.83334 6.47769 6.35568 7.00003 7.00001 7.00003C7.64434 7.00003 8.16668 6.47769 8.16668 5.83336C8.16668 5.18903 7.64434 4.66669 7.00001 4.66669ZM4.66668 5.83336C4.66668 4.54469 5.71135 3.50003 7.00001 3.50003C8.28868 3.50003 9.33334 4.54469 9.33334 5.83336C9.33334 7.12202 8.28868 8.16669 7.00001 8.16669C5.71135 8.16669 4.66668 7.12202 4.66668 5.83336Z" fill="currentColor" />
  </symbol>
  <symbol viewBox="0 0 20 20" fill="none" xmlns="http://www.w3.org/2000/svg" id="icon-next">
    <path fill-rule="evenodd" clip-rule="evenodd" d="M11.9107 6.07745C12.2361 5.75201 12.7637 5.75201 13.0892 6.07745L16.4225 9.41078C16.5788 9.56706 16.6666 9.77903 16.6666 10C16.6666 10.2211 16.5788 10.433 16.4225 10.5893L13.0892 13.9226C12.7637 14.2481 12.2361 14.2481 11.9107 13.9226C11.5852 13.5972 11.5852 13.0696 11.9107 12.7441L13.8214 10.8334H4.16659C3.70635 10.8334 3.33325 10.4603 3.33325 10C3.33325 9.5398 3.70635 9.16671 4.16659 9.16671H13.8214L11.9107 7.25596C11.5852 6.93053 11.5852 6.40289 11.9107 6.07745Z" fill="#4A5565"/>
  </symbol>
  <symbol viewBox="0 0 20 20" fill="none" xmlns="http://www.w3.org/2000/svg" id="icon-prev">
    <path fill-rule="evenodd" clip-rule="evenodd" d="M8.08917 6.07745C8.41461 6.40289 8.41461 6.93053 8.08917 7.25596L6.17843 9.16671H15.8333C16.2935 9.16671 16.6666 9.5398 16.6666 10C16.6666 10.4603 16.2935 10.8334 15.8333 10.8334H6.17843L8.08917 12.7441C8.41461 13.0696 8.41461 13.5972 8.08917 13.9226C7.76374 14.2481 7.2361 14.2481 6.91066 13.9226L3.57733 10.5893C3.25189 10.2639 3.25189 9.73622 3.57733 9.41079L6.91066 6.07745C7.2361 5.75201 7.76374 5.75201 8.08917 6.07745Z" fill="#4A5565"/>
  </symbol>
</svg>